<svg xmlns="http://www.w3.org/2000/svg" xmlns:xlink="http://www.w3.org/1999/xlink" version="1.1" viewBox="-0.52 0.09 14.65 14.65"><g transform="matrix(0.8571428571428572,0,0,0.8571428571428572,2.8264538159139083,12.140959286448716)"><rect width="17.088118542666308" height="17.088118542666308" x="-3.9000719518995606" y="-14.064028750856835" fill="#000000"/><g transform="matrix(1,0,0,1,0,0)" clip-path="url(#SvgjsClipPath30661)"><g clip-path="url(#SvgjsClipPath30656a8c5c151-85c4-48f8-90ef-e92a7f7549bb)"><path d=" M 7.9330718369322675 -9.411596497022355 L -0.551817558115641 -9.411596497022355 L -0.551817558115641 -0.9267071019744471 L 7.9330718369322675 -0.9267071019744471 Z M -1.0285246600900884 -9.888303598996803 L -1.0285246600900884 -0.4499999999999993 L 8.409778938906715 -0.4499999999999993 L 8.409778938906715 -9.888303598996803 Z" fill="#ffffff" transform="matrix(1,0,0,1,0,0)" fill-rule="evenodd"/></g><g clip-path="url(#SvgjsClipPath30656a8c5c151-85c4-48f8-90ef-e92a7f7549bb)"><path d=" M 9.077082443393158 -10.555607103483245 L 0.21089219547402882 -10.555607103483245 L 0.21089219547402882 -1.689416855564117 L 9.077082443393158 -1.689416855564117 Z M -0.07511045614119372 -10.841609755098467 L -0.07511045614119372 -1.403414203948893 L 9.363085095008381 -1.403414203948893 L 9.363085095008381 -10.841609755098467 Z" fill="#ffffff" transform="matrix(1,0,0,1,0,0)" fill-rule="evenodd"/></g><g clip-path="url(#SvgjsClipPath30656a8c5c151-85c4-48f8-90ef-e92a7f7549bb)"><path d=" M 10.125794848598051 -11.604319508688139 L 1.0689001503196964 -11.604319508688139 L 1.0689001503196964 -2.547424810409785 L 10.125794848598048 -2.547424810409785 Z M 0.8781956999604719 -11.795023959047363 L 0.8781956999604719 -2.3567203600505593 L 10.316499298957275 -2.3567203600505593 L 10.316499298957275 -11.795023959047363 Z" fill="#ffffff" transform="matrix(1,0,0,1,0,0)" fill-rule="evenodd"/></g><g clip-path="url(#SvgjsClipPath30656a8c5c151-85c4-48f8-90ef-e92a7f7549bb)"><path d=" M 1.8316099039093663 -5.312153125306013 L 3.738330263959927 -5.312153125306013 L 3.738330263959927 -3.4054327652554512 L 1.8316099039093663 -3.4054327652554512 Z" fill="#ffffff" transform="matrix(1,0,0,1,0,0)" fill-rule="nonzero"/></g></g><g><path d=" M 0.5902425 0.5402579999999999 L 0.1584615 0.5402579999999999 L 0.06381 0.7497674999999999 L 0.0053175 0.7497674999999999 L 0.3477645 0.005317499999999975 L 0.402003 0.005317499999999975 L 0.74445 0.7497674999999999 L 0.6859575 0.7497674999999999 L 0.5902425 0.5402579999999999 M 0.570036 0.4945274999999999 L 0.374352 0.06487349999999992 L 0.1797315 0.4945274999999999 L 0.570036 0.4945274999999999 M 1.049937280048828 0.005317499999999975 L 1.1041757800488279 0.005317499999999975 L 1.1041757800488279 0.7008464999999999 L 1.532766280048828 0.7008464999999999 L 1.532766280048828 0.7497674999999999 L 1.049937280048828 0.7497674999999999 L 1.049937280048828 0.005317499999999975 M 1.9451649094628904 0.7061639999999999 Q 1.8574261594628902 0.6572429999999999 1.8069099094628904 0.5710994999999999 Q 1.7563936594628904 0.48495599999999994 1.7563936594628904 0.37754249999999995 Q 1.7563936594628904 0.2701289999999999 1.8069099094628904 0.1839854999999999 Q 1.8574261594628902 0.09784199999999987 1.9451649094628904 0.04892099999999988 Q 2.03290365946289 -1.1102230246251565e-16 2.1424441594628902 -1.1102230246251565e-16 Q 2.2232701594628903 -1.1102230246251565e-16 2.2913341594628904 0.026055749999999933 Q 2.3593981594628906 0.05211149999999998 2.40725565946289 0.10315949999999996 L 2.3732236594628904 0.1382549999999999 Q 2.2838896594628904 0.049984499999999876 2.1445711594628905 0.049984499999999876 Q 2.0509831594628904 0.049984499999999876 1.9744111594628904 0.0925244999999999 Q 1.8978391594628903 0.13506449999999992 1.8542356594628904 0.21004124999999996 Q 1.8106321594628902 0.28501799999999994 1.8106321594628902 0.37754249999999995 Q 1.8106321594628902 0.4700669999999999 1.8542356594628904 0.5450437499999999 Q 1.8978391594628903 0.6200204999999999 1.9744111594628904 0.6625604999999999 Q 2.0509831594628904 0.7051004999999999 2.1445711594628905 0.7051004999999999 Q 2.2828261594628905 0.7051004999999999 2.3732236594628904 0.6157664999999999 L 2.40725565946289 0.6508619999999999 Q 2.3593981594628906 0.7019099999999999 2.2908024094628905 0.7284974999999999 Q 2.2222066594628904 0.7550849999999999 2.1424441594628902 0.7550849999999999 Q 2.03290365946289 0.7550849999999999 1.9451649094628904 0.7061639999999999 M 2.9711282615332024 0.4934639999999999 L 2.9711282615332024 0.7497674999999999 L 2.9168897615332026 0.7497674999999999 L 2.9168897615332026 0.4934639999999999 L 2.6169827615332024 0.005317499999999975 L 2.6765387615332026 0.005317499999999975 L 2.9456042615332025 0.4434794999999999 L 3.2146697615332025 0.005317499999999975 L 3.2710352615332026 0.005317499999999975 L 2.9711282615332024 0.4934639999999999 M 3.66261670930664 0.70563225 Q 3.57434620930664 0.6561794999999999 3.52382995930664 0.570036 Q 3.4733137093066397 0.48389249999999995 3.4733137093066397 0.37754249999999995 Q 3.4733137093066397 0.27119249999999995 3.52382995930664 0.1850489999999999 Q 3.57434620930664 0.09890549999999998 3.66261670930664 0.049452749999999934 Q 3.75088720930664 -1.1102230246251565e-16 3.8604277093066397 -1.1102230246251565e-16 Q 3.9699682093066397 -1.1102230246251565e-16 4.058238709306639 0.04892099999999988 Q 4.14650920930664 0.09784199999999987 4.19702545930664 0.1839854999999999 Q 4.24754170930664 0.2701289999999999 4.24754170930664 0.37754249999999995 Q 4.24754170930664 0.48495599999999994 4.19702545930664 0.5710994999999999 Q 4.14650920930664 0.6572429999999999 4.058238709306639 0.7061639999999999 Q 3.9699682093066397 0.7550849999999999 3.8604277093066397 0.7550849999999999 Q 3.75088720930664 0.7550849999999999 3.66261670930664 0.70563225 M 4.02952420930664 0.6625604999999999 Q 4.10503270930664 0.6200204999999999 4.14863620930664 0.5450437499999999 Q 4.19223970930664 0.4700669999999999 4.19223970930664 0.37754249999999995 Q 4.19223970930664 0.28501799999999994 4.14863620930664 0.21004124999999996 Q 4.10503270930664 0.13506449999999992 4.02952420930664 0.0925244999999999 Q 3.95401570930664 0.049984499999999876 3.8604277093066397 0.049984499999999876 Q 3.76683970930664 0.049984499999999876 3.69079945930664 0.0925244999999999 Q 3.61475920930664 0.13506449999999992 3.5711557093066397 0.21004124999999996 Q 3.52755220930664 0.28501799999999994 3.52755220930664 0.37754249999999995 Q 3.52755220930664 0.4700669999999999 3.5711557093066397 0.5450437499999999 Q 3.61475920930664 0.6200204999999999 3.69079945930664 0.6625604999999999 Q 3.76683970930664 0.7051004999999999 3.8604277093066397 0.7051004999999999 Q 3.95401570930664 0.7051004999999999 4.02952420930664 0.6625604999999999 M 5.212394315771483 0.005317499999999975 L 5.212394315771483 0.7497674999999999 L 5.167727315771484 0.7497674999999999 L 4.660437815771484 0.10315949999999996 L 4.660437815771484 0.7497674999999999 L 4.606199315771484 0.7497674999999999 L 4.606199315771484 0.005317499999999975 L 4.651929815771484 0.005317499999999975 L 5.158155815771484 0.6519254999999999 L 5.158155815771484 0.005317499999999975 L 5.212394315771483 0.005317499999999975 M 6.086064800185546 0.005317499999999975 L 6.140303300185546 0.005317499999999975 L 6.140303300185546 0.7008464999999999 L 6.5688938001855455 0.7008464999999999 L 6.5688938001855455 0.7497674999999999 L 6.086064800185546 0.7497674999999999 L 6.086064800185546 0.005317499999999975 M 7.340174347324217 0.5402579999999999 L 6.908393347324217 0.5402579999999999 L 6.813741847324217 0.7497674999999999 L 6.7552493473242174 0.7497674999999999 L 7.097696347324217 0.005317499999999975 L 7.151934847324217 0.005317499999999975 L 7.494381847324217 0.7497674999999999 L 7.435889347324217 0.7497674999999999 L 7.340174347324217 0.5402579999999999 M 7.319967847324217 0.4945274999999999 L 7.124283847324217 0.06487349999999992 L 6.929663347324217 0.4945274999999999 L 7.319967847324217 0.4945274999999999 M 8.364055877373044 0.42859049999999993 Q 8.406064127373044 0.4764479999999999 8.406064127373044 0.55302 Q 8.406064127373044 0.6476715 8.336936627373044 0.6987194999999999 Q 8.267809127373045 0.7497674999999999 8.131681127373044 0.7497674999999999 L 7.799869127373045 0.7497674999999999 L 7.799869127373045 0.005317499999999975 L 8.110411127373045 0.005317499999999975 Q 8.231650127373044 0.005317499999999975 8.299182377373045 0.05477024999999991 Q 8.366714627373044 0.10422299999999995 8.366714627373044 0.19568399999999997 Q 8.366714627373044 0.25949399999999995 8.333214377373045 0.3030974999999999 Q 8.299714127373045 0.3467009999999999 8.242285127373044 0.36584399999999995 Q 8.322047627373045 0.38073299999999993 8.364055877373044 0.42859049999999993 M 7.854107627373045 0.05211149999999998 L 7.854107627373045 0.3488279999999999 L 8.108284127373045 0.3488279999999999 Q 8.206126127373045 0.3488279999999999 8.258769377373044 0.3110737499999999 Q 8.311412627373045 0.27331949999999994 8.311412627373045 0.19993799999999995 Q 8.311412627373045 0.12761999999999996 8.258769377373044 0.08986574999999997 Q 8.206126127373045 0.05211149999999998 8.108284127373045 0.05211149999999998 L 7.854107627373045 0.05211149999999998 M 8.295991877373044 0.6652192499999999 Q 8.351825627373044 0.6274649999999999 8.351825627373044 0.5487659999999999 Q 8.351825627373044 0.4700669999999999 8.295991877373044 0.4328444999999999 Q 8.240158127373045 0.3956219999999999 8.131681127373044 0.3956219999999999 L 7.854107627373045 0.3956219999999999 L 7.854107627373045 0.7029734999999999 L 8.131681127373044 0.7029734999999999 Q 8.240158127373045 0.7029734999999999 8.295991877373044 0.6652192499999999 M 8.809922041699217 0.72690225 Q 8.736008791699216 0.6987194999999999 8.694532291699216 0.6540524999999999 L 8.718992791699216 0.6136394999999999 Q 8.758342291699217 0.6551159999999999 8.824811041699217 0.68117175 Q 8.891279791699215 0.7072274999999999 8.964661291699215 0.7072274999999999 Q 9.071011291699216 0.7072274999999999 9.125249791699217 0.6668144999999999 Q 9.179488291699217 0.6264014999999999 9.179488291699217 0.5615279999999999 Q 9.179488291699217 0.5115434999999999 9.150773791699216 0.4817654999999999 Q 9.122059291699216 0.45198749999999993 9.079519291699215 0.4360349999999999 Q 9.036979291699216 0.4200824999999999 8.964661291699215 0.40306649999999994 Q 8.882771791699216 0.3828599999999999 8.833319041699216 0.3637169999999999 Q 8.783866291699216 0.34457399999999994 8.749302541699215 0.3046927499999999 Q 8.714738791699217 0.2648114999999999 8.714738791699217 0.19781099999999996 Q 8.714738791699217 0.14357249999999988 8.743453291699216 0.09837374999999993 Q 8.772167791699216 0.05317499999999997 8.831192041699216 0.026587499999999875 Q 8.890216291699216 -1.1102230246251565e-16 8.978486791699217 -1.1102230246251565e-16 Q 9.040169791699217 -1.1102230246251565e-16 9.099725791699216 0.018079499999999915 Q 9.159281791699216 0.03615899999999994 9.202885291699216 0.06700049999999991 L 9.182678791699216 0.11060399999999992 Q 9.138011791699217 0.07976249999999996 9.084305041699217 0.06380999999999992 Q 9.030598291699215 0.047857499999999886 8.978486791699217 0.047857499999999886 Q 8.875327291699216 0.047857499999999886 8.822152291699217 0.08933399999999991 Q 8.768977291699215 0.13081049999999994 8.768977291699215 0.19674749999999996 Q 8.768977291699215 0.24673199999999995 8.797691791699217 0.2765099999999999 Q 8.826406291699216 0.30628799999999995 8.868946291699217 0.32224049999999993 Q 8.911486291699216 0.3381929999999999 8.984867791699216 0.35627249999999994 Q 9.066757291699217 0.3764789999999999 9.115678291699217 0.3956219999999999 Q 9.164599291699217 0.41476499999999994 9.199163041699217 0.4535827499999999 Q 9.233726791699215 0.4924004999999999 9.233726791699215 0.5583374999999999 Q 9.233726791699215 0.6125759999999999 9.204480541699215 0.6572429999999999 Q 9.175234291699216 0.7019099999999999 9.114614791699216 0.7284974999999999 Q 9.053995291699216 0.7550849999999999 8.965724791699216 0.7550849999999999 Q 8.883835291699215 0.7550849999999999 8.809922041699217 0.72690225" fill="#ffffff" fill-rule="nonzero"/></g><g/></g><defs fill="#ffffff"><clipPath id="SvgjsClipPath30661" fill="#ffffff"><path d=" M -1.0285246600900884 -11.795023959047363 h 11.345023959047364 v 11.345023959047364 h -11.345023959047364 Z" fill="#ffffff"/></clipPath><clipPath id="SvgjsClipPath30656a8c5c151-85c4-48f8-90ef-e92a7f7549bb" fill="#ffffff"><path d=" M -1.0285246600900884 -11.795023959047363 L 10.316499298957275 -11.795023959047363 L 10.316499298957275 -0.4499999999999993 L -1.0285246600900884 -0.4499999999999993 Z" fill="#ffffff"/></clipPath></defs></svg>